<svg id="Capa_1" enable-background="new 0 0 511.829 511.829" height="512" viewBox="0 0 511.829 511.829" width="512" xmlns="http://www.w3.org/2000/svg"><g><g><path d="m111.35 400.351c-50.669-50.669-79.405-102.628-95.681-146.191-30.342-81.211 28.243-167.94 114.925-169.367 8.89-.146 18.152.358 27.767 1.649 0 0 50.043 68.241 34.879 125.867 0 0-34.626 28.56-60.911 28.56 0 0 .758 36.142 51.56 86.944 45.494 45.494 86.944 51.56 86.944 51.56 0-26.285 28.56-60.911 28.56-60.911 57.626-15.165 125.867 34.879 125.867 34.879 1.292 9.615 1.795 18.877 1.649 27.767-1.426 86.682-88.156 145.266-169.367 114.925-43.564-16.277-95.523-45.013-146.192-95.682z" fill="#78c2a4"/><path d="m404.845 450.171c-31.156 44.856-90.573 67.051-147.299 45.857-43.568-16.276-95.53-45.011-146.197-95.678s-79.401-102.628-95.677-146.197c-21.194-56.725 1.001-116.143 45.857-147.299-22.42 32.18-29.899 74.77-14.515 115.957 16.276 43.568 45.011 95.53 95.678 146.197s102.629 79.402 146.197 95.678c41.186 15.384 83.776 7.906 115.956-14.515z" fill="#5aa687"/><path d="m425.261 353.347c1.288 9.62 1.792 18.875 1.652 27.765-.124 7.618-.916 15.019-2.296 22.156h-.015c-61.31-45.624-147.314-49.27-147.314-49.27 8.417-18.937 22.11-35.531 22.11-35.531 57.617-15.166 125.863 34.88 125.863 34.88z" fill="#f7f9f9"/><path d="m193.239 212.309s-16.594 13.693-35.531 22.11c0 0-3.646-86.004-49.27-147.314l-.008-.008c7.137-1.397 14.546-2.18 22.164-2.304 8.891-.14 18.146.365 27.765 1.652.001 0 50.047 68.246 34.88 125.864z" fill="#f7f9f9"/><path d="m383.444 7.128c-66.761 0-120.882 54.121-120.882 120.882 0 33.827 13.901 64.404 36.294 86.344-2.514 10.952-6.725 26.583-12.571 39.12-3.763 8.071 2.572 17.284 11.46 16.729 15.809-.986 37.253-6.375 53.302-25.709 10.311 2.862 21.174 4.397 32.396 4.397 66.761 0 120.882-54.121 120.882-120.882.001-66.76-54.12-120.881-120.881-120.881z" fill="#90d8f9"/></g><g><path d="m429.695 347.29c-2.905-2.129-71.818-51.974-132.213-36.085-1.521.4-2.877 1.268-3.878 2.481-1.105 1.34-24.43 29.885-29.363 56.389-4.325-1.272-10.285-3.327-17.394-6.555-13.916-6.32-35.213-18.564-57.654-41.005-12.896-12.896-23.603-25.958-31.823-38.825-2.23-3.491-6.868-4.512-10.358-2.282-3.491 2.23-4.512 6.868-2.282 10.358 8.804 13.779 20.195 27.693 33.857 41.355 46.711 46.711 89.365 53.406 91.158 53.668 2.156.319 4.342-.322 5.99-1.747 1.648-1.424 2.595-3.496 2.595-5.674 0-5.374 1.51-11.405 3.84-17.506 18.74 1.622 84.285 9.636 134.092 44.629-6.611 28.172-23.359 52.735-48.045 69.563-32.112 21.89-71.495 26.61-108.053 12.948-52.485-19.604-100.769-51.215-143.511-93.957-42.723-42.724-74.335-91.008-93.957-143.512-13.659-36.56-8.937-75.947 12.957-108.06 16.827-24.682 41.388-41.427 69.554-48.037 34.991 49.801 43.008 115.342 44.632 134.091-6.102 2.331-12.135 3.841-17.509 3.841-2.017 0-3.95.813-5.36 2.254-1.411 1.442-2.182 3.391-2.138 5.408.019.889.337 9.075 5.507 22.681 1.47 3.872 5.802 5.819 9.675 4.347 3.872-1.471 5.818-5.803 4.347-9.675-1.65-4.343-2.703-7.985-3.372-10.812 26.68-4.674 55.673-28.364 57.023-29.478 1.213-1 2.081-2.357 2.481-3.878 15.888-60.384-33.955-129.309-36.084-132.213-1.206-1.645-3.029-2.728-5.051-2.999-9.604-1.29-19.326-1.868-28.891-1.715-43.608.719-82.683 21.763-107.207 57.734-24.675 36.194-30.002 80.573-14.615 121.76 20.379 54.53 53.15 104.616 97.402 148.868 44.271 44.271 94.358 77.042 148.868 97.402 15.493 5.79 31.432 8.648 47.224 8.648 26.183-.001 51.951-7.863 74.528-23.253 35.977-24.525 57.023-63.604 57.743-107.222.151-9.555-.427-19.273-1.715-28.885-.273-2.02-1.356-3.844-3-5.05zm-298.987-255.003c7.742-.122 15.598.273 23.401 1.178 8.438 12.492 43.172 67.68 32.456 114.581-4.932 3.855-13.109 9.61-22.265 14.66-2.483-24.148-11.477-81.841-42.77-129.911 3.032-.278 6.09-.457 9.178-.508zm158.282 255.113c5.051-9.158 10.807-17.336 14.662-22.268 46.911-10.718 102.097 24.022 114.581 32.456.904 7.809 1.3 15.665 1.178 23.396-.051 3.09-.23 6.15-.508 9.184-48.073-31.294-105.769-40.285-129.913-42.768z"/><path d="m383.44.128c-70.789 0-128.38 57.591-128.38 128.38 0 33.36 12.588 64.677 35.543 88.664-2.487 10.177-6.225 23.146-11.108 33.632-2.893 6.192-2.313 13.279 1.553 18.956 3.652 5.364 9.542 8.472 15.941 8.472.408 0 .818-.013 1.229-.038 15.868-.994 37.938-6.181 55.409-24.789 9.727 2.313 19.734 3.483 29.813 3.483 37.174 0 72.492-16.095 96.899-44.158 2.718-3.125 2.388-7.863-.737-10.581-3.126-2.719-7.864-2.388-10.581.737-21.557 24.786-52.75 39.001-85.581 39.001-10.314 0-20.538-1.385-30.385-4.117-2.846-.789-5.889.164-7.775 2.436-14.485 17.445-34.097 22.145-47.993 23.015-2.204.146-3.419-1.287-3.84-1.904-.412-.604-1.271-2.22-.358-4.173 6.104-13.106 10.482-29.315 13.081-40.604.585-2.545-.195-5.212-2.061-7.04-21.957-21.505-34.048-50.269-34.048-80.992 0-62.518 50.862-113.38 113.38-113.38 62.523 0 113.39 50.862 113.39 113.38 0 18.003-4.091 35.206-12.16 51.13-1.873 3.695-.395 8.208 3.3 10.08 3.694 1.873 8.208.396 10.08-3.3 9.144-18.045 13.78-37.529 13.78-57.91-.002-70.789-57.597-128.38-128.391-128.38z"/><path d="m448.622 87.92h-130.356c-4.142 0-7.5 3.358-7.5 7.5s3.358 7.5 7.5 7.5h130.356c4.142 0 7.5-3.358 7.5-7.5s-3.358-7.5-7.5-7.5z"/><path d="m448.622 123.834h-130.356c-4.142 0-7.5 3.358-7.5 7.5s3.358 7.5 7.5 7.5h130.356c4.142 0 7.5-3.358 7.5-7.5s-3.358-7.5-7.5-7.5z"/><path d="m448.622 159.749h-130.356c-4.142 0-7.5 3.358-7.5 7.5s3.358 7.5 7.5 7.5h130.356c4.142 0 7.5-3.358 7.5-7.5s-3.358-7.5-7.5-7.5z"/></g></g></svg>