<?xml version="1.0" encoding="iso-8859-1"?>
<!-- Generator: Adobe Illustrator 19.0.0, SVG Export Plug-In . SVG Version: 6.00 Build 0)  -->
<svg version="1.1" id="Capa_1" xmlns="http://www.w3.org/2000/svg" xmlns:xlink="http://www.w3.org/1999/xlink" x="0px" y="0px"
	 viewBox="0 0 512 512" style="enable-background:new 0 0 512 512;" xml:space="preserve">
<path style="fill:#D89245;" d="M493.319,76.05c-9.595,0-301.998,0-308.849,0c-6.203,0-11.231,5.028-11.231,11.231l0,0v220.874l0,0
	c0,6.203,5.028,11.231,11.231,11.231h22.924c9.471,0,276.472,0,285.925,0c6.204,0,11.232-5.028,11.232-11.231l0,0V87.28l0,0
	C504.551,81.077,499.523,76.05,493.319,76.05z"/>
<path style="fill:#D3892F;" d="M193.191,308.154V87.28c0-6.203,5.028-11.231,11.231-11.231H184.47
	c-6.203,0-11.231,5.028-11.231,11.231v220.874c0,6.203,5.028,11.231,11.231,11.231h19.952
	C198.218,319.385,193.191,314.357,193.191,308.154z"/>
<path style="fill:#F9C76E;" d="M177.331,78.611c-2.501,2.06-4.092,5.179-4.092,8.669v220.874c0,2.399,0.76,4.619,2.04,6.444l0,0
	l139.357-122.667L177.331,78.611z"/>
<path style="fill:#FCD890;" d="M356.587,186.154c-9.77-8.6-25.614-8.6-35.385,0L175.279,314.599
	c2.033,2.889,5.388,4.786,9.191,4.786h308.849c3.805,0,7.159-1.896,9.191-4.786L356.587,186.154z"/>
<path style="fill:#F4BF6C;" d="M441.676,261.052l-85.089-74.898c-9.77-8.6-25.614-8.6-35.385,0L175.279,314.599
	c2.033,2.889,5.388,4.786,9.191,4.786h257.207L441.676,261.052L441.676,261.052z"/>
<path style="fill:#F9C76E;" d="M500.458,78.611c2.499,2.06,4.093,5.179,4.093,8.669c0,238.735,0.875,223.164-2.041,227.318l0,0
	L363.152,191.932L500.458,78.611z"/>
<g>
	<path style="fill:#F4B251;" d="M441.676,261.052v-115.49c0-5.439-3.868-9.974-9.002-11.007l-69.522,57.378L441.676,261.052z"/>
	<path style="fill:#F4B251;" d="M173.332,309.533c0.027,0.223,0.061,0.444,0.102,0.662c0.025,0.135,0.05,0.267,0.08,0.401
		c0.044,0.196,0.096,0.388,0.15,0.581c0.038,0.136,0.072,0.272,0.115,0.407c0.089,0.276,0.189,0.548,0.298,0.814
		c0.074,0.182,0.159,0.357,0.241,0.533c0.051,0.108,0.101,0.216,0.156,0.322c0.092,0.181,0.19,0.357,0.291,0.532
		c0.054,0.093,0.11,0.184,0.167,0.273c0.11,0.178,0.22,0.353,0.339,0.524c0.003,0.005,0.007,0.009,0.01,0.014l17.911-15.766V91.7
		l-15.86-13.088c-2.471,2.032-4.092,5.226-4.092,8.669v220.874c0,0.349,0.021,0.693,0.052,1.034
		C173.302,309.305,173.318,309.419,173.332,309.533z"/>
</g>
<path style="fill:#E09B48;" d="M410.493,134.331H387.57c-9.476,0-276.494,0-285.927,0c-6.203,0-11.231,5.029-11.231,11.231l0,0
	v220.875l0,0c0,6.202,5.028,11.231,11.231,11.231h22.925c9.471,0,276.476,0,285.926,0c6.203,0,11.232-5.029,11.232-11.231l0,0
	V145.562l0,0C421.724,139.36,416.695,134.331,410.493,134.331z"/>
<path style="fill:#D3892F;" d="M110.363,366.436V145.562c0-6.203,5.028-11.231,11.231-11.231h-19.952
	c-6.203,0-11.231,5.028-11.231,11.231v220.874c0,6.203,5.028,11.231,11.231,11.231h19.952
	C115.391,377.667,110.363,372.639,110.363,366.436z"/>
<g>
	<path style="fill:#F9C76E;" d="M193.191,308.154v-9.322l-17.911,15.766c0.007,0.011,0.016,0.022,0.023,0.032
		c0.232,0.328,0.484,0.642,0.75,0.943c0.04,0.045,0.081,0.089,0.121,0.134c0.249,0.273,0.513,0.535,0.788,0.783
		c0.043,0.039,0.085,0.079,0.129,0.118c0.314,0.274,0.641,0.536,0.985,0.774l0.001,0.001c0.362,0.251,0.739,0.482,1.13,0.69
		c0.005,0.003,0.01,0.005,0.015,0.008c0.354,0.189,0.722,0.353,1.098,0.503c0.103,0.041,0.207,0.076,0.311,0.114
		c0.286,0.105,0.579,0.198,0.875,0.279c0.131,0.035,0.261,0.07,0.394,0.101c0.293,0.069,0.591,0.123,0.892,0.169
		c0.127,0.019,0.252,0.043,0.38,0.058c0.426,0.05,0.857,0.081,1.296,0.081h19.952C198.218,319.385,193.191,314.357,193.191,308.154z
		"/>
	<path style="fill:#F9C76E;" d="M94.505,136.893c-2.501,2.059-4.092,5.178-4.092,8.668c0,238.735-0.874,223.163,2.04,227.318l0,0
		L231.81,250.214L94.505,136.893z"/>
</g>
<path style="fill:#FCD890;" d="M273.761,244.436c-9.77-8.6-25.614-8.6-35.385,0L92.452,372.881c2.033,2.89,5.388,4.787,9.191,4.787
	h308.851c3.804,0,7.158-1.897,9.19-4.787L273.761,244.436z"/>
<path style="fill:#F4BF6C;" d="M358.846,319.33l-85.086-74.895c-9.77-8.6-25.614-8.6-35.385,0L92.452,372.881
	c2.033,2.89,5.388,4.787,9.191,4.787h257.204V319.33z"/>
<path style="fill:#F9C76E;" d="M417.631,136.893c2.499,2.059,4.094,5.178,4.094,8.668c0,238.735,0.875,223.165-2.042,227.318l0,0
	L280.326,250.215L417.631,136.893z"/>
<g>
	<path style="fill:#F4B251;" d="M358.846,319.331V203.845c0-5.439-3.867-9.972-9-11.007l-69.522,57.378L358.846,319.331z"/>
	<path style="fill:#F4B251;" d="M90.606,368.477c0.07,0.38,0.104,0.532,0.228,0.982c0.114,0.406,0.159,0.601,0.413,1.222
		c0.09,0.219,0.324,0.713,0.397,0.855c0.158,0.308,0.299,0.552,0.458,0.806c0.107,0.173,0.231,0.372,0.35,0.538l17.911-15.766
		V149.981l-15.86-13.088c-2.471,2.033-4.092,5.225-4.092,8.669v220.874c0,0.35,0.021,0.693,0.052,1.034
		C90.483,367.682,90.541,368.128,90.606,368.477z"/>
</g>
<path style="fill:#F9C76E;" d="M110.363,366.436v-9.322L92.453,372.88c0.007,0.011,0.016,0.021,0.023,0.032
	c0.232,0.328,0.484,0.642,0.75,0.943c0.039,0.045,0.08,0.089,0.121,0.134c0.249,0.273,0.513,0.535,0.788,0.783
	c0.043,0.039,0.085,0.079,0.129,0.118c0.314,0.274,0.641,0.536,0.985,0.774l0.002,0.001c1.008,0.699,2.103,1.229,3.43,1.595
	c0.131,0.035,0.261,0.07,0.394,0.101c0.292,0.069,0.591,0.123,0.892,0.169c0.127,0.018,0.252,0.043,0.38,0.058
	c0.426,0.05,0.857,0.081,1.296,0.081h19.952C115.391,377.667,110.363,372.639,110.363,366.436z"/>
<path style="fill:#E8A449;" d="M327.667,192.614h-22.923c-9.476,0-276.493,0-285.927,0c-6.203,0-11.231,5.028-11.231,11.231l0,0
	v220.874l0,0c0,6.203,5.028,11.231,11.231,11.231c7.085,0,299.468,0,308.85,0c6.203,0,11.232-5.028,11.232-11.231l0,0V203.845l0,0
	C338.898,197.642,333.87,192.614,327.667,192.614z"/>
<path style="fill:#D3892F;" d="M27.538,424.719V203.845c0-6.203,5.028-11.231,11.231-11.231H18.817
	c-6.203,0-11.231,5.028-11.231,11.231v220.874c0,6.203,5.028,11.231,11.231,11.231h19.952
	C32.566,435.95,27.538,430.922,27.538,424.719z"/>
<path style="fill:#F9C76E;" d="M11.678,195.175c-2.501,2.061-4.093,5.179-4.093,8.67c0,238.735-0.874,223.163,2.04,227.318l0,0
	l139.357-122.667L11.678,195.175z"/>
<path style="fill:#F4B251;" d="M9.627,431.163l17.911-15.766V208.263l-15.86-13.088c-2.538,2.088-4.093,5.323-4.093,8.67
	C7.586,435.237,6.479,426.625,9.627,431.163z"/>
<path style="fill:#FCD890;" d="M190.934,302.719c-9.77-8.6-25.614-8.6-35.385,0L9.626,431.164c2.033,2.89,5.388,4.786,9.191,4.786
	h308.85c3.804,0,7.158-1.896,9.19-4.786L190.934,302.719z"/>
<g>
	<path style="fill:#F9C76E;" d="M27.538,424.719v-9.322L9.627,431.163c0.623,0.922,1.705,2.026,2.796,2.784
		c0,0,2.597,2.003,6.394,2.003h19.952C32.566,435.95,27.538,430.922,27.538,424.719z"/>
	<path style="fill:#F9C76E;" d="M334.805,195.175c2.499,2.061,4.093,5.179,4.093,8.67c0,238.735,0.875,223.164-2.041,227.318l0,0
		L197.499,308.497L334.805,195.175z"/>
</g>
<path d="M504.518,144.375c4.132,0,7.482-3.349,7.482-7.482V87.281c0-10.34-8.492-18.714-18.713-18.714H184.439
	c-7.689,0-14.703,4.742-17.495,12.096c-1.807,4.757-1.219,5.388-1.219,46.186H101.61c-10.571,0-18.713,8.65-18.713,18.715v39.568
	H18.784c-8.836,0-16.606,6.233-18.352,15.078c-0.556,2.816-0.588,224.985-0.028,227.961c1.638,8.736,9.338,15.26,18.379,15.26
	h59.468c4.132,0,7.482-3.349,7.482-7.482s-3.35-7.482-7.482-7.482H23.979l129.914-114.353c0.002-0.002,0.003-0.004,0.005-0.005
	l6.559-5.773c6.911-6.083,18.589-6.081,25.5,0l6.563,5.777l0.001,0.001l129.914,114.353h-209.27c-4.132,0-7.482,3.349-7.482,7.482
	s3.35,7.482,7.482,7.482h214.465c9.345,0,17.433-7.008,18.568-16.488c0.206-1.754,0.145,1.399,0.145-41.794
	c67.017,0,65.004,0.09,66.917-0.224c7.509-1.108,13.395-6.765,15.19-13.377l-0.007-0.002c0.01-0.035,0.018-0.071,0.027-0.105
	l0.009,0.002c1-3.631,0.69-4.263,0.69-44.577c67.868,0,66.919,1.091,73.103-2.307c5.75-3.157,9.725-9.328,9.725-16.406V171.809
	c0-4.133-3.35-7.482-7.482-7.482s-7.482,3.349-7.482,7.482v128.032l-67.863-59.735v-92.987l67.863-56.008v45.783
	C497.036,141.026,500.386,144.375,504.518,144.375z M482.711,83.531l-59.075,48.756c-0.413-0.411-0.839-0.803-1.271-1.161
	c-0.045-0.037-0.096-0.061-0.141-0.098c-3.217-2.609-7.309-4.18-11.764-4.18h-0.001H247.501L195.015,83.53h287.695V83.531z
	 M180.689,91.11l43.304,35.739h-43.304V91.11z M97.862,149.393l43.304,35.739H97.862V149.393z M15.035,416.405V207.676
	l122.384,101.006L15.035,416.405z M195.844,297.104c-12.693-11.172-32.579-11.172-45.273,0l-1.778,1.564L29.36,200.096
	c7.331,0,281.325,0,287.696,0l-119.435,98.573L195.844,297.104z M331.381,416.405c-9.246-8.138-118.941-104.693-122.384-107.723
	l122.384-101.006C331.381,266.142,331.381,412.815,331.381,416.405z M340.809,190.569c-3.417-3.392-8.121-5.437-13.177-5.437
	H164.674l-52.487-43.319c7.553,0,280.116,0,287.696,0L340.809,190.569z M346.345,370.186v-51.861l58.92,51.861H346.345z
	 M414.207,358.122l-67.864-59.734v-92.986l67.864-56.01V358.122z M429.172,260.042l20.332,17.897l38.587,33.965h-58.918V260.042z"/>
<g>
</g>
<g>
</g>
<g>
</g>
<g>
</g>
<g>
</g>
<g>
</g>
<g>
</g>
<g>
</g>
<g>
</g>
<g>
</g>
<g>
</g>
<g>
</g>
<g>
</g>
<g>
</g>
<g>
</g>
</svg>
