<?xml version="1.0" encoding="iso-8859-1"?>
<!-- Generator: Adobe Illustrator 19.0.0, SVG Export Plug-In . SVG Version: 6.00 Build 0)  -->
<svg version="1.1" id="Layer_1" xmlns="http://www.w3.org/2000/svg" xmlns:xlink="http://www.w3.org/1999/xlink" x="0px" y="0px"
	 viewBox="0 0 512 512" style="enable-background:new 0 0 512 512;" xml:space="preserve">
<path style="fill:#099DD1;" d="M39.876,54.352l38.269-38.269c10.311-10.311,27.033-10.317,37.349,0l73.415,73.415
	c10.311,10.311,10.311,27.038,0,37.349l-34.796,34.796c-12.782,12.782-12.782,33.506,0,46.288l149.965,149.965
	c12.782,12.782,33.506,12.782,46.288,0l34.796-34.796c10.311-10.311,27.033-10.317,37.349,0l73.415,73.415
	c10.311,10.311,10.311,27.038,0,37.349l-38.269,38.269c-42.023,42.023-110.158,42.023-152.181,0L39.876,206.533
	C-2.147,164.51-2.147,96.375,39.876,54.352z"/>
<path style="fill:#0B8DCE;" d="M483.486,446.308l-25.824,25.824c-42.029,42.029-110.156,42.029-152.185,0L39.879,206.531
	c-42.029-42.016-42.029-110.156,0-152.185l25.498-25.498c-41.69,42.041-41.578,109.943,0.326,151.858l265.613,265.599
	C373.33,488.323,441.47,488.323,483.486,446.308z"/>
<path style="fill:#099DD1;" d="M496.173,433.622l-12.687,12.686c-42.016,42.016-110.156,42.016-152.172,0L65.701,180.707
	C23.798,138.791,23.685,70.89,65.376,28.849c0.112-0.112,0.213-0.213,0.326-0.326l12.448-12.436
	c10.307-10.319,27.026-10.319,37.345,0L188.907,89.5c10.319,10.307,10.319,27.038,0,37.345l-8.967,8.967
	c-0.026,0.026-0.05,0.05-0.076,0.076l-25.748,25.76c-12.787,12.774-12.787,33.5,0,46.287l149.958,149.958
	c12.787,12.787,33.513,12.787,46.287,0l25.76-25.748c0.026-0.026,0.05-0.05,0.076-0.076l8.967-8.967
	c10.307-10.307,27.026-10.319,37.345,0l73.425,73.412C506.154,406.746,506.242,423.289,496.173,433.622z"/>
<g>
	<path style="fill:#00ABE0;" d="M476.252,453.544L365.487,342.779l19.678-19.678c10.311-10.311,27.033-10.317,37.349,0
		l73.415,73.415c10.311,10.311,10.311,27.038,0,37.349L476.252,453.544z"/>
	<path style="fill:#00ABE0;" d="M58.469,35.76l19.676-19.676c10.311-10.311,27.033-10.317,37.349,0l73.415,73.415
		c10.311,10.311,10.311,27.038,0,37.349l-19.678,19.678L58.469,35.76z"/>
</g>
<path d="M362.28,224.152c1.629,1.63,3.765,2.443,5.901,2.443c2.137,0,4.274-0.816,5.905-2.446c24.38-24.394,24.38-64.083,0-88.475
	c-11.812-11.817-27.519-18.326-44.225-18.326s-32.412,6.509-44.225,18.326c-3.259,3.261-3.258,8.546,0.003,11.805
	c3.259,3.259,8.545,3.258,11.805-0.002c8.658-8.663,20.172-13.433,32.416-13.433c12.246,0,23.758,4.772,32.416,13.433
	c17.877,17.883,17.877,46.984,0,64.869C359.018,215.607,359.019,220.893,362.28,224.152z"/>
<path d="M398.949,261.965c2.137,0,4.274-0.816,5.905-2.446c42.142-42.16,42.142-110.761,0-152.924
	c-20.417-20.424-47.562-31.673-76.436-31.673c-28.872,0-56.018,11.247-76.435,31.673c-3.259,3.261-3.258,8.546,0.002,11.805
	c3.261,3.259,8.546,3.259,11.806-0.002c17.262-17.27,40.214-26.78,64.627-26.78c24.414,0,47.366,9.51,64.627,26.78
	c35.639,35.653,35.639,93.664,0,129.317c-3.259,3.261-3.258,8.546,0.003,11.805C394.678,261.151,396.814,261.965,398.949,261.965z"
	/>
<path d="M232.638,87.597c25.607-25.618,59.653-39.726,95.864-39.726s70.258,14.109,95.864,39.726
	c52.862,52.884,52.862,138.935,0,191.819c-3.259,3.261-3.258,8.546,0.003,11.805c1.629,1.629,3.765,2.444,5.901,2.444
	c2.137,0,4.274-0.816,5.905-2.446c59.368-59.393,59.368-156.032,0-215.426c-28.761-28.772-66.999-44.618-107.673-44.618
	s-78.912,15.845-107.673,44.618c-3.259,3.261-3.258,8.546,0.003,11.805C224.092,90.858,229.378,90.858,232.638,87.597z"/>
<path d="M501.828,390.617l-73.419-73.418c-13.551-13.551-35.603-13.55-49.154,0l-34.795,34.795
	c-4.605,4.605-10.726,7.141-17.239,7.141s-12.635-2.537-17.239-7.141L160.014,202.026c-9.505-9.507-9.507-24.973,0-34.48
	l15.083-15.084c0.012-0.012,0.027-0.022,0.039-0.035c0.012-0.012,0.023-0.027,0.035-0.039l19.636-19.637
	c6.565-6.565,10.181-15.293,10.181-24.577s-3.616-18.012-10.18-24.577L121.391,10.18C114.827,3.616,106.098,0,96.814,0
	S78.802,3.616,72.237,10.18L33.972,48.445C12.07,70.348,0.008,99.466,0.008,130.44s12.062,60.092,33.963,81.995l131.93,131.932
	c3.26,3.259,8.545,3.26,11.806,0c3.26-3.26,3.26-8.546,0-11.805L45.779,200.629c-18.749-18.748-29.074-43.675-29.074-70.189
	S27.03,79,45.779,60.251l12.688-12.688l98.96,98.96l-9.217,9.217c-16.016,16.016-16.015,42.075,0.001,58.09l149.965,149.968
	c7.759,7.759,18.074,12.031,29.046,12.032c0.001,0,0,0,0.001,0c10.97,0,21.287-4.273,29.045-12.031l9.217-9.217l98.96,98.961
	l-12.688,12.688c-18.748,18.748-43.675,29.074-70.189,29.074s-51.441-10.325-70.189-29.074l-90.618-90.618
	c-3.261-3.26-8.546-3.26-11.806,0s-3.26,8.546,0,11.805l90.618,90.618C321.476,499.938,350.594,512,381.568,512
	c30.973,0,60.092-12.062,81.995-33.963l18.574-18.575c0.006-0.006,0.011-0.01,0.017-0.016c0.006-0.006,0.01-0.011,0.016-0.017
	l19.659-19.659C515.38,426.219,515.38,404.168,501.828,390.617z M70.271,35.758l13.772-13.772c3.411-3.411,7.947-5.29,12.771-5.29
	c4.824,0,9.36,1.879,12.771,5.29l73.419,73.418c3.41,3.411,5.29,7.947,5.29,12.772c0,4.824-1.879,9.36-5.291,12.771l-13.772,13.772
	L70.271,35.758z M490.022,427.965l-13.772,13.772l-98.96-98.961l13.771-13.772c7.042-7.041,18.501-7.043,25.543,0l73.418,73.418
	C497.064,409.464,497.064,420.923,490.022,427.965z"/>
<g>
</g>
<g>
</g>
<g>
</g>
<g>
</g>
<g>
</g>
<g>
</g>
<g>
</g>
<g>
</g>
<g>
</g>
<g>
</g>
<g>
</g>
<g>
</g>
<g>
</g>
<g>
</g>
<g>
</g>
</svg>
