<?xml version="1.0" encoding="iso-8859-1"?>
<!-- Generator: Adobe Illustrator 19.0.0, SVG Export Plug-In . SVG Version: 6.00 Build 0)  -->
<svg version="1.1" id="Layer_1" xmlns="http://www.w3.org/2000/svg" xmlns:xlink="http://www.w3.org/1999/xlink" x="0px" y="0px"
	 viewBox="0 0 512 512" style="enable-background:new 0 0 512 512;" xml:space="preserve">
<polygon style="fill:#C1C4C6;" points="273.65,34.264 7.957,34.264 7.957,436.091 340.612,436.091 340.612,101.226 "/>
<polygon style="fill:#A3A6AA;" points="273.65,101.226 340.612,101.226 273.65,34.264 "/>
<path style="fill:#5F666F;" d="M411.235,348.044c10.185,10.187,10.185,26.698,0,36.883c-10.183,10.183-26.696,10.182-36.881,0
	l-58.927-58.928c-10.182-10.183-10.183-26.696-0.001-36.881c10.187-10.183,26.7-10.183,36.884,0L411.235,348.044z"/>
<circle style="fill:#252A2F;" cx="272.111" cy="245.797" r="118.448"/>
<circle style="fill:#7194D8;" cx="272.111" cy="245.797" r="76.218"/>
<path style="fill:#394049;" d="M372.769,402.022c-15.343-15.343-15.343-40.22,0-55.561c15.343-15.343,40.22-15.343,55.562,0
	l64.227,64.227c15.343,15.343,15.343,40.218,0,55.562c-15.341,15.341-40.218,15.341-55.561,0L372.769,402.022z"/>
<path d="M498.186,405.06l-64.227-64.227c-8.707-8.706-20.218-13.584-32.495-13.815l-19.227-19.227
	c10.357-18.327,16.279-39.478,16.279-61.989c0-40.989-19.615-77.477-49.946-100.59v-43.986c0-2.11-0.838-4.134-2.33-5.627
	l-66.962-66.962c-1.493-1.492-3.516-2.33-5.627-2.33H7.957C3.562,26.307,0,29.869,0,34.264v401.827c0,4.395,3.562,7.957,7.957,7.957
	h332.655c4.396,0,7.957-3.563,7.957-7.957v-65.696l4.78,4.78c0.231,11.785,4.82,23.5,13.793,32.474v0.001l64.23,64.228
	c9.21,9.21,21.309,13.815,33.406,13.815c12.098,0,24.198-4.606,33.407-13.816C516.605,453.454,516.605,423.481,498.186,405.06z
	 M281.607,53.475l39.794,39.794h-39.794V53.475z M332.654,428.133H15.915V42.222h249.778v59.004c0,4.396,3.562,7.957,7.957,7.957
	h59.004v25.681c-17.991-9.859-38.624-15.471-60.545-15.471c-69.701,0-126.408,56.706-126.408,126.409
	c0,69.7,56.705,126.407,126.408,126.407c21.921,0,42.555-5.613,60.545-15.47L332.654,428.133L332.654,428.133z M272.109,356.293
	c-60.926,0-110.493-49.566-110.493-110.492c0-60.927,49.567-110.494,110.493-110.494s110.492,49.567,110.492,110.494
	C382.6,306.727,333.035,356.293,272.109,356.293z M356.887,356.206l-8.318-8.319v-1.498c9.368-7.138,17.719-15.549,24.78-24.979
	l9.145,9.145c-5.672,2.344-10.881,5.808-15.352,10.278C362.604,345.371,359.19,350.612,356.887,356.206z M486.931,460.622
	c-12.213,12.216-32.089,12.216-44.307,0l-64.229-64.228v0.001c-12.216-12.217-12.216-32.093,0-44.308
	c5.917-5.918,13.785-9.176,22.154-9.176c8.369,0,16.237,3.258,22.154,9.176l64.227,64.226
	C499.146,428.529,499.146,448.407,486.931,460.622z M272.109,161.627c-46.414,0-84.174,37.761-84.174,84.175
	c0,46.413,37.76,84.173,84.174,84.173c46.415,0,84.176-37.76,84.176-84.173C356.286,199.388,318.524,161.627,272.109,161.627z
	 M272.109,314.061c-37.638,0-68.259-30.62-68.259-68.258c0-37.639,30.621-68.261,68.259-68.261s68.262,30.621,68.262,68.261
	C340.371,283.44,309.748,314.061,272.109,314.061z"/>
<g>
</g>
<g>
</g>
<g>
</g>
<g>
</g>
<g>
</g>
<g>
</g>
<g>
</g>
<g>
</g>
<g>
</g>
<g>
</g>
<g>
</g>
<g>
</g>
<g>
</g>
<g>
</g>
<g>
</g>
</svg>
